# AST/ASF file generated using VICON BodyLanguage
# -----------------------------------------------
:version 1.10
:name VICON
:units
  mass 1.0
  length 0.45
  angle deg
:documentation
   .ast/.asf automatically generated from VICON data using
   VICON BodyBuilder and BodyLanguage model FoxedUp or BRILLIANT.MOD
:root
   order TX TY TZ RX RY RZ
   axis XYZ
   position 0 0 0  
   orientation 0 0 0 
:bonedata
  begin
     id 1 
     name lhipjoint
     direction 0.573633 -0.743009 0.344793 
     length 2.46257 
     axis 0 0 0  XYZ
  end
  begin
     id 2 
     name lfemur
     direction 0.34202 -0.939693 0  
     length 7.3842  
     axis 0 0 20  XYZ
    dof rx ry rz
    limits (-160.0 20.0)
           (-70.0 70.0)
           (-60.0 70.0)
  end
  begin
     id 3 
     name ltibia
     direction 0.34202 -0.939693 0   
     length 7.50407   
     axis 0 0 20   XYZ
    dof rx
    limits (-10.0 170.0)
  end
  begin
     id 4 
     name lfoot
     direction 0.110749 -0.304281 0.946123   
     length 1.95925   
     axis -90 7.62852e-016 20   XYZ
    dof rx rz
    limits (-45.0 90.0)
           (-70.0 20.0)
  end
  begin
     id 5 
     name ltoes
     direction 1.53554e-011 -4.21843e-011 1   
     length 0.978318   
     axis -90 7.62852e-016 20   XYZ
    dof rx
    limits (-90.0 20.0)
  end
  begin
     id 6 
     name rhipjoint
     direction -0.488109 -0.791693 0.367385   
     length 2.31113  
     axis 0 0 0  XYZ 
  end
  begin
     id 7 
     name rfemur
     direction -0.34202 -0.939693 0   
     length 7.40965   
     axis 0 0 -20   XYZ
    dof rx ry rz
    limits (-160.0 20.0)
           (-70.0 70.0)
           (-70.0 60.0)
  end
  begin
     id 8 
     name rtibia
     direction -0.34202 -0.939693 0   
     length 7.55548   
     axis 0 0 -20   XYZ
    dof rx
    limits (-10.0 170.0)
 end
 begin
     id 9 
     name rfoot
     direction -0.127594 -0.350561 0.927808   
     length 2.07199  
     axis -90 -7.62852e-016 -20   XYZ
    dof rx rz
    limits (-45.0 90.0)
           (-20.0 70.0)
  end
  begin
     id 10 
     name rtoes
     direction -1.53542e-011 -4.21909e-011 1   
     length 1.02667   
     axis -90 -7.62852e-016 -20   XYZ
    dof rx
    limits (-90.0 20.0)
  end
  begin
     id 11 
     name lowerback
     direction -0.0103342 0.997298 -0.0727278   
     length 2.02836   
     axis 0 0 0   XYZ
    dof rx ry rz
    limits (-20.0 45.0)
           (-30.0 30.0)
           (-30.0 30.0)
  end
  begin
     id 12 
     name upperback
     direction 0.0171146 0.999786 -0.011606   
     length 2.03179   
     axis 0 0 0   XYZ
    dof rx ry rz
    limits (-20.0 45.0)
           (-30.0 30.0)
           (-30.0 30.0)
  end
  begin
     id 13 
     name thorax
     direction 0.0216927 0.999513 0.0224343   
     length 2.03882   
     axis 0 0 0   XYZ
    dof rx ry rz
    limits (-20.0 45.0)
           (-30.0 30.0)
           (-30.0 30.0)
  end
  begin
     id 14 
     name lowerneck
     direction 0.000989287 0.993907 0.110221   
     length 1.75428   
     axis 0 0 0   XYZ
    dof rx ry rz
    limits (-20.0 45.0)
           (-30.0 30.0)
           (-30.0 30.0)
  end
  begin
     id 15 
     name upperneck
     direction -0.0172474 0.994813 -0.100253   
     length 1.77058   
     axis 0 0 0   XYZ
    dof rx ry rz
    limits (-20.0 45.0)
           (-30.0 30.0)
           (-30.0 30.0)
  end
  begin
     id 16
     name head
     direction -0.00486455 0.99894 -0.0457663  
     length 1.77427  
     axis 0 0 0   XYZ
    dof rx ry rz
    limits (-20.0 45.0)
           (-30.0 30.0)
           (-30.0 30.0)
  end
  begin
     id 17 
     name lclavicle
     direction 0.927314 0.333734 -0.169441  
     length 3.97584  
     axis 0 0 0   XYZ
    dof ry rz
    limits (-20.0 10.0)
           (0.0 20.0)
  end
  begin
     id 18 
     name lhumerus
     direction 1 -4.48965e-011 -3.25313e-028   
     length 4.76468   
     axis 180 -30 -90   XYZ
    dof rx ry rz
    limits (-60.0 90.0)
           (-90.0 90.0)
           (-90.0 90.0)
  end
  begin
     id 19
     name lradius
     direction 1 -4.48969e-011 -2.8465e-028   
     length 3.52712   
     axis -180 -30 -90   XYZ
    dof rx
    limits (-10.0 170.0)
  end
  begin
     id 20
     name lwrist
     direction 1 -4.4896e-011 -7.78665e-028   
     length 1.76356   
     axis 1.91374e-015 90 90   XYZ
    dof ry
    limits (-180.0 0.0)
 end
  begin
     id 21 
     name lhand
     direction 1 -4.48959e-011 -1.55733e-027   
     length 0.859564   
     axis 9.9371e-016 90 90   XYZ
    dof rx rz
    limits (-90.0 90.0)
           (-45.0 45.0)
  end
  begin
     id 22 
     name lfingers
     direction 1 -4.48965e-011 -3.11466e-027   
     length 0.693002   
     axis 1.98742e-015 90 90   XYZ
    dof rx
    limits (0.0 90.0)
  end
  begin
     id 23
     name lthumb
     direction 0.707107 -6.34948e-011 0.707107   
     length 0.995017   
     axis -90 45 2.85299e-015   XYZ
    dof rx rz
    limits (-45.0 45.0)
           (-45.0 45.0)
  end
  begin
     id 24 
     name rclavicle
     direction -0.899388 0.348209 -0.264294   
     length 3.68366  
     axis 0 0 0   XYZ 
    dof ry rz
    limits (-10.0 20.0)
           (-20.0 0.0)
  end
  begin
     id 25 
     name rhumerus
     direction -1 -4.48965e-011 -3.01536e-027  
     length 4.90577   
     axis 180 30 90   XYZ
    dof rx ry rz
    limits (-90.0 60.0)
           (-90.0 90.0)
           (-90.0 90.0)
  end
  begin
     id 26 
     name rradius
     direction -1 -4.48966e-011 3.93291e-027   
     length 3.42692   
     axis -180 30 90   XYZ
    dof rx
    limits (-10.0 170.0)
  end
  begin
     id 27 
     name rwrist
     direction -1 -4.48969e-011 -7.78665e-028   
     length 1.71346   
     axis 1.91374e-015 -90 -90   XYZ
    dof ry
    limits (-180.0 0.0)
  end
  begin
     id 28
     name rhand
     direction -1 -4.48967e-011 -1.55733e-027   
     length 0.740957   
     axis 9.9371e-016 -90 -90   XYZ
    dof rx rz
    limits (-90.0 90.0)
           (-45.0 45.0)
  end
  begin
     id 29
     name rfingers
     direction -1 -4.48949e-011 -3.11466e-027   
     length 0.597378   
     axis 1.98742e-015 -90 -90   XYZ
    dof rx
    limits (0.0 90.0)
  end
  begin
     id 30
     name rthumb
     direction -0.707107 -6.34931e-011 0.707107   
     length 0.857719   
     axis -90 -45 -2.85299e-015   XYZ
    dof rx rz
    limits (-45.0 45.0)
           (-45.0 45.0)
  end
:hierarchy
  begin
    root lhipjoint rhipjoint lowerback
    lhipjoint lfemur
    lfemur ltibia
    ltibia lfoot
    lfoot ltoes
    rhipjoint rfemur
    rfemur rtibia
    rtibia rfoot
    rfoot rtoes
    lowerback upperback
    upperback thorax
    thorax lowerneck lclavicle rclavicle
    lowerneck upperneck
    upperneck head
    lclavicle lhumerus
    lhumerus lradius
    lradius lwrist
    lwrist lhand lthumb
    lhand lfingers
    rclavicle rhumerus
    rhumerus rradius
    rradius rwrist
    rwrist rhand rthumb
    rhand rfingers
  end

#!OML:ASF E:\I on waltz\AllaLogoMonkeySwing\Project 1\Capture day 1\Session 1\Subject1.ASF
:FULLY-SPECIFIED
:DEGREES
78
root -4.29327 17.2597 -16.7307 2.17359 20.0423 1.50089
lowerback 7.70919 -1.02586 -4.4956
upperback 1.19259 -1.70959 0.597924
thorax -2.93586 -0.800379 3.31772
lowerneck -2.9839 -10.8759 -10.2235
upperneck 8.63261 -14.71 7.84999
head 4.40665 -7.2743 3.16768
rclavicle 3.07495e-015 3.8266e-015
rhumerus -23.5366 -26.8283 -77.4513
rradius 19.1622
rwrist 12.5372
rhand -10.2478 -39.0018
rfingers 7.12502
rthumb 15.745 -68.3813
lclavicle 3.07495e-015 3.8266e-015
lhumerus -40.0918 39.171 66.9357
lradius 30.2121
lwrist -8.03663
lhand -12.27 -12.2696
lfingers 7.12502
lthumb 13.7968 17.2529
rfemur -11.5806 -3.3627 21.814
rtibia 40.1861
rfoot -29.4945 -13.942
rtoes 26.33
lfemur -17.2398 0.472953 -21.9397
ltibia 39.1598
lfoot -22.5333 6.15957
ltoes -22.3916
79
root -4.30699 17.2667 -16.7472 2.18784 19.9826 1.52095
lowerback 7.78026 -1.00868 -4.51841
upperback 1.18251 -1.69313 0.571827
thorax -2.98759 -0.790488 3.30405
lowerneck -2.99339 -10.7987 -10.0251
upperneck 8.75044 -14.6023 7.65232
head 4.40494 -7.22274 3.08686
rclavicle 1.4797e-014 -1.3418e-015
rhumerus -22.9356 -26.7365 -77.7367
rradius 19.457
rwrist 12.1302
rhand -10.3738 -38.9378
rfingers 7.12502
rthumb 15.6237 -68.3269
lclavicle 1.4797e-014 -1.3418e-015
lhumerus -39.4552 38.5697 67.7992
lradius 30.5609
lwrist -7.66995
lhand -12.5832 -12.2746
lfingers 7.12502
lthumb 13.4949 17.2682
rfemur -11.6596 -3.40524 21.8144
rtibia 40.173
rfoot -29.4234 -13.8232
rtoes 26.2064
lfemur -17.3033 0.518145 -21.9305
ltibia 39.1153
lfoot -22.529 6.1354
ltoes -22.2828
80
root -4.32146 17.2709 -16.763 2.23201 19.9777 1.53032
lowerback 7.83994 -1.04837 -4.60247
upperback 1.14163 -1.75658 0.581922
thorax -3.05479 -0.818631 3.37051
lowerneck -3.04783 -10.6904 -9.86406
upperneck 8.9122 -14.4378 7.35444
head 4.41491 -7.14739 2.98264
rclavicle 5.79395e-014 -8.19987e-015
rhumerus -22.3238 -26.2082 -78.1824
rradius 19.7597
rwrist 11.4295
rhand -10.4324 -39.0104
rfingers 7.12502
rthumb 15.5672 -68.4039
lclavicle 5.79395e-014 -8.19987e-015
lhumerus -38.925 37.9842 68.7187
lradius 31.0747
lwrist -7.0674
lhand -12.9102 -12.2466
lfingers 7.12502
lthumb 13.1798 17.3168
rfemur -11.7679 -3.4306 21.8398
rtibia 40.1361
rfoot -29.333 -13.8173
rtoes 25.8684
lfemur -17.4119 0.529218 -21.9067
ltibia 39.0903
lfoot -22.5263 6.13703
ltoes -22.2013
81
root -4.33344 17.2725 -16.7751 2.15655 19.9344 1.29556
lowerback 7.88952 -1.06542 -4.40757
upperback 1.1053 -1.76381 0.648662
thorax -3.12336 -0.821729 3.33299
lowerneck -3.34944 -10.5636 -9.48249
upperneck 9.35616 -14.235 6.85958
head 4.51936 -7.04789 2.77057
rclavicle 5.15598e-016 2.13694e-015
rhumerus -21.8873 -25.4457 -78.6573
rradius 20.2347
rwrist 10.5332
rhand -10.5589 -39.0889
rfingers 7.12502
rthumb 15.4453 -68.4918
lclavicle 5.15598e-016 2.13694e-015
lhumerus -38.3412 37.0655 69.8743
lradius 31.7248
lwrist -6.20596
lhand -13.2099 -12.1824
lfingers 7.12502
lthumb 12.8909 17.3995
rfemur -11.8216 -3.37405 22.1111
rtibia 40.0815
rfoot -29.2365 -13.8464
rtoes 25.97
lfemur -17.4714 0.611047 -21.6283
ltibia 39.0804
lfoot -22.5349 6.09518
ltoes -22.0975
82
root -4.34343 17.2748 -16.7857 2.13321 19.8957 1.16751
lowerback 7.86009 -1.04818 -4.25035
upperback 1.08441 -1.72579 0.676119
thorax -3.13586 -0.803892 3.26875
lowerneck -3.61836 -10.4695 -9.29503
upperneck 9.79755 -14.0718 6.43234
head 4.6417 -6.97301 2.60464
rclavicle -8.59309e-014 -6.95746e-015
rhumerus -21.4365 -24.7042 -79.1092
rradius 20.6867
rwrist 9.53279
rhand -10.6373 -39.3493
rfingers 7.12502
rthumb 15.3698 -68.758
lclavicle -8.59309e-014 -6.95746e-015
lhumerus -37.699 35.9264 71.154
lradius 32.4903
lwrist -5.45246
lhand -13.2768 -11.9558
lfingers 7.12502
lthumb 12.8264 17.6301
rfemur -11.8736 -3.32797 22.2722
rtibia 40.0282
rfoot -29.1161 -13.8991
rtoes 26.2133
lfemur -17.5449 0.641241 -21.4694
ltibia 39.0833
lfoot -22.5419 6.06604
ltoes -22.1238
83
root -4.35327 17.2769 -16.7962 2.20266 19.8727 1.23978
lowerback 7.76386 -1.02231 -4.28527
upperback 1.07646 -1.69121 0.648637
thorax -3.09324 -0.787425 3.25383
lowerneck -3.72111 -10.354 -9.17718
upperneck 9.95479 -13.8902 6.14894
head 4.66418 -6.89035 2.50927
rclavicle 6.65307e-015 2.98177e-016
rhumerus -20.8711 -23.7128 -79.6397
rradius 21.0063
rwrist 8.06168
rhand -11.0132 -39.6795
rfingers 7.12502
rthumb 15.0078 -69.1157
lclavicle 6.65307e-015 2.98177e-016
lhumerus -37.1416 35.2247 72.2221
lradius 33.2438
lwrist -5.16505
lhand -13.1108 -11.8436
lfingers 7.12502
lthumb 12.9864 17.7322
rfemur -11.9515 -3.34571 22.2186
rtibia 39.9939
rfoot -29.0071 -13.9091
rtoes 26.3982
lfemur -17.6405 0.586952 -21.5291
ltibia 39.0841
lfoot -22.5108 6.12858
ltoes -22.1785
84
root -4.36468 17.2766 -16.8081 2.26337 19.8846 1.31052
lowerback 7.7157 -1.01531 -4.33956
upperback 1.05416 -1.68598 0.614616
thorax -3.08944 -0.784113 3.24756
lowerneck -3.80707 -10.1701 -9.06145
upperneck 10.0484 -13.6246 5.95525
head 4.66506 -6.76326 2.45033
rclavicle 1.0517e-014 1.32689e-014
rhumerus -20.4473 -22.4913 -80.2572
rradius 21.3638
rwrist 6.31027
rhand -12.0696 -39.7339
rfingers 7.12502
rthumb 13.99 -69.2432
lclavicle 1.0517e-014 1.32689e-014
lhumerus -36.6441 34.9878 73.0773
lradius 33.8081
lwrist -4.92713
lhand -13.0844 -12.3214
lfingers 7.12502
lthumb 13.0118 17.2528
rfemur -12.0412 -3.39363 22.168
rtibia 39.9932
rfoot -29.0014 -13.8242
rtoes 26.5652
lfemur -17.7327 0.57537 -21.5803
ltibia 39.0668
lfoot -22.4494 6.13229
ltoes -22.2405
85
root -4.37511 17.2764 -16.82 2.29029 19.9055 1.37279
lowerback 7.70242 -0.98044 -4.37212
upperback 1.04171 -1.6429 0.588676
thorax -3.09857 -0.762003 3.2346
lowerneck -3.94919 -9.99882 -8.86679
upperneck 10.1874 -13.372 5.69546
head 4.68113 -6.64172 2.35483
rclavicle 2.12637e-014 1.68967e-015
rhumerus -20.2273 -21.769 -80.6966
rradius 21.8244
rwrist 5.55414
rhand -12.4973 -39.6254
rfingers 7.12502
rthumb 13.5778 -69.1627
lclavicle 2.12637e-014 1.68967e-015
lhumerus -36.0592 34.3005 74.1669
lradius 34.431
lwrist -4.30219
lhand -13.1306 -12.8287
lfingers 7.12502
lthumb 12.9673 16.7483
rfemur -12.1173 -3.35892 22.1275
rtibia 40.0143
rfoot -29.1125 -13.7244
rtoes 26.7273
lfemur -17.7897 0.576668 -21.6206
ltibia 39.043
lfoot -22.3801 6.1004
ltoes -22.2727
86
root -4.3824 17.2774 -16.8304 2.26658 19.8771 1.38656
lowerback 7.66453 -0.917395 -4.3308
upperback 1.04787 -1.55442 0.568629
thorax -3.08042 -0.719149 3.18078
lowerneck -4.02263 -9.85883 -8.43087
upperneck 10.2287 -13.1541 5.19392
head 4.62707 -6.54212 2.15512
rclavicle -6.51455e-014 -4.57205e-015
rhumerus -20.0617 -21.4876 -81.0193
rradius 22.3541
rwrist 5.74842
rhand -11.6402 -39.7941
rfingers 7.12502
rthumb 14.4037 -69.2743
lclavicle -6.51455e-014 -4.57205e-015
lhumerus -35.5043 33.3124 75.3237
lradius 35.2236
lwrist -3.56963
lhand -12.8646 -12.9689
lfingers 7.12502
lthumb 13.2237 16.5917
rfemur -12.1518 -3.30341 22.1169
rtibia 40.031
rfoot -29.1889 -13.6208
rtoes 26.9009
lfemur -17.7958 0.513128 -21.6225
ltibia 39.0339
lfoot -22.3278 6.17841
ltoes -22.3289
87
root -4.3909 17.2782 -16.8416 2.19083 19.8949 1.3307
lowerback 7.69179 -0.908602 -4.24379
upperback 1.02588 -1.5381 0.544754
thorax -3.12285 -0.71072 3.10645
lowerneck -4.10646 -9.62987 -8.04057
upperneck 10.3918 -12.824 4.75065
head 4.61383 -6.38606 1.98425
rclavicle -1.19395e-014 9.19379e-016
rhumerus -19.9569 -20.9478 -81.5145
rradius 22.9003
rwrist 5.64995
rhand -11.0179 -40.055
rfingers 7.12502
rthumb 15.0033 -69.4914
lclavicle -1.19395e-014 9.19379e-016
lhumerus -35.1244 32.6304 76.1828
lradius 35.9872
lwrist -3.12646
lhand -12.4561 -13.0151
lfingers 7.12502
lthumb 13.6174 16.5195
rfemur -12.1473 -3.2894 22.1936
rtibia 40.0392
rfoot -29.1518 -13.6687
rtoes 26.8945
lfemur -17.7865 0.432706 -21.5476
ltibia 39.0405
lfoot -22.3164 6.23622
ltoes -22.4427
88
root -4.40142 17.278 -16.8532 2.07062 19.9928 1.24851
lowerback 7.801 -0.918199 -4.13058
upperback 0.984378 -1.54779 0.526852
thorax -3.22965 -0.713684 3.02856
lowerneck -4.31624 -9.36265 -7.93468
upperneck 10.8371 -12.45 4.56347
head 4.74283 -6.20377 1.92097
rclavicle 3.84835e-015 3.13086e-015
rhumerus -19.9285 -20.1102 -82.0488
rradius 23.3711
rwrist 5.19785
rhand -10.9889 -40.1914
rfingers 7.12502
rthumb 15.0311 -69.6258
lclavicle 3.84835e-015 3.13086e-015
lhumerus -34.7926 31.947 77.0121
lradius 36.6694
lwrist -2.83806
lhand -12.2716 -13.0691
lfingers 7.12502
lthumb 13.7953 16.4535
rfemur -12.0916 -3.28485 22.3255
rtibia 40.0371
rfoot -29.0835 -13.8418
rtoes 26.7424
lfemur -17.7636 0.355718 -21.4344
ltibia 39.0721
lfoot -22.3576 6.19865
ltoes -22.4141
89
root -4.41132 17.2757 -16.8637 1.95875 20.054 1.2027
lowerback 7.87669 -0.872539 -4.00904
upperback 0.963656 -1.48081 0.516625
thorax -3.30231 -0.679904 2.94502
lowerneck -4.55288 -9.15718 -7.91984
upperneck 11.2693 -12.1502 4.39607
head 4.88528 -6.06049 1.87066
rclavicle -5.22182e-014 -1.20762e-014
rhumerus -19.8366 -19.3624 -82.4618
rradius 23.6314
rwrist 4.70474
rhand -11.053 -40.1906
rfingers 7.12502
rthumb 14.9695 -69.6296
lclavicle -5.22182e-014 -1.20762e-014
lhumerus -34.3657 31.0098 78.0354
lradius 37.2775
lwrist -2.38565
lhand -12.3084 -13.1476
lfingers 7.12502
lthumb 13.7598 16.3774
rfemur -12.0235 -3.28608 22.4167
rtibia 40.0322
rfoot -28.9997 -13.9625
rtoes 26.5399
lfemur -17.7429 0.266163 -21.3632
ltibia 39.1323
lfoot -22.3762 6.18901
ltoes -22.2334
90
root -4.42015 17.2718 -16.8742 1.86823 20.1192 1.15122
lowerback 7.88833 -0.834232 -3.87911
upperback 0.97652 -1.41885 0.517564
thorax -3.30352 -0.650911 2.86662
lowerneck -4.79309 -8.9605 -7.89877
upperneck 11.6185 -11.8598 4.24006
head 5.00444 -5.92167 1.82443
rclavicle -2.78299e-014 2.85753e-015
rhumerus -19.6787 -18.7804 -82.8797
rradius 23.7902
rwrist 4.25775
rhand -11.1849 -40.0487
rfingers 7.12502
rthumb 14.8423 -69.4971
lclavicle -2.78299e-014 2.85753e-015
lhumerus -33.8951 30.1776 79.0046
lradius 37.7797
lwrist -2.04448
lhand -12.2936 -13.3227
lfingers 7.12502
lthumb 13.774 16.2013
rfemur -11.9782 -3.32292 22.5003
rtibia 40.0298
rfoot -28.9537 -14.0354
rtoes 26.2746
lfemur -17.7608 0.229415 -21.2911
ltibia 39.217
lfoot -22.37 6.13009
ltoes -22.1683
91
root -4.42733 17.2691 -16.8848 1.7962 20.2353 1.06007
lowerback 7.8479 -0.818671 -3.70402
upperback 0.995708 -1.38048 0.53531
thorax -3.26769 -0.635025 2.78132
lowerneck -5.07004 -8.73265 -7.90669
upperneck 12.0684 -11.523 4.0798
head 5.16054 -5.76159 1.7818
rclavicle 3.16161e-014 -1.50579e-014
rhumerus -19.5894 -18.3441 -83.2844
rradius 24.0138
rwrist 4.18989
rhand -11.0922 -39.9434
rfingers 7.12502
rthumb 14.9316 -69.3852
lclavicle 3.16161e-014 -1.50579e-014
lhumerus -33.4726 29.6674 79.7739
lradius 38.1858
lwrist -2.06853
lhand -11.8702 -13.5678
lfingers 7.12502
lthumb 14.1821 15.9281
rfemur -11.9677 -3.35955 22.6121
rtibia 40.0262
rfoot -29.0056 -14.0314
rtoes 26.2392
lfemur -17.8275 0.185321 -21.1826
ltibia 39.3333
lfoot -22.4041 6.03279
ltoes -22.1735
92
root -4.43263 17.2694 -16.8953 1.73385 20.3046 1.04015
lowerback 7.84745 -0.764377 -3.54465
upperback 0.99729 -1.2952 0.518735
thorax -3.2761 -0.594549 2.66568
lowerneck -5.39283 -8.49323 -7.94822
upperneck 12.6385 -11.165 3.91803
head 5.36351 -5.59303 1.74203
rclavicle -2.4786e-015 -2.23633e-015
rhumerus -19.6269 -18.1536 -83.6092
rradius 24.2975
rwrist 4.38472
rhand -10.7311 -39.9035
rfingers 7.12502
rthumb 15.2795 -69.3192
lclavicle -2.4786e-015 -2.23633e-015
lhumerus -33.1233 29.3615 80.3983
lradius 38.5163
lwrist -2.29856
lhand -11.0436 -13.8504
lfingers 7.12502
lthumb 14.9785 15.5879
rfemur -11.9501 -3.35003 22.6339
rtibia 40.0305
rfoot -29.0443 -13.924
rtoes 26.6001
lfemur -17.8867 0.0355265 -21.1586
ltibia 39.4833
lfoot -22.4127 6.05902
ltoes -21.9999
